<svg xmlns="http://www.w3.org/2000/svg" xmlns:xlink="http://www.w3.org/1999/xlink" width="275.697" height="80.882" viewBox="0 0 275.697 80.882"><defs><style>.a{fill:#1a2c3a;}.b{clip-path:url(#a);}.c{fill:#eb3768;}.d,.e{fill:#fff;font-family:DarkerGrotesque-Black, Darker Grotesque;font-weight:800;}.d{font-size:30px;letter-spacing:0.006em;}.e{font-size:20px;letter-spacing:0.035em;opacity:0;}</style><clipPath id="a"><path class="a" d="M806.352,4004.261c-10.44,5.288-11.686,18.03-11.545,29.481.076,6.232.619,12.436,1.013,18.649.357,5.627.332,11.308,2.956,16.341,4.378,8.4,13.949,10.616,21.978,11.357,12.326,1.137,24.709-.332,37.058.432,16.589,1.027,33,2.253,49.634,1.818s33.233-.611,49.876-.624,33.279-.08,49.914-.5c15.654-.394,32.041.322,47.128-4.955,6.839-2.391,12.138-6.044,15.184-12.178.547-6.772.868-13.564.914-20.366.059-8.849.231-18.4-1.608-27.058-1.01-4.758-2.932-8.858-6.615-11.454-.291-.2-.594-.382-.892-.573-9.4-4.532-20.739-2.626-30.65-2.328q-19.248.58-38.5.928-39.183.708-78.373.46-38.849-.246-77.687-1.434-9.793-.3-19.585-.659a37.611,37.611,0,0,0-8,.367A4.448,4.448,0,0,1,806.352,4004.261Z" transform="translate(-742.797 -4776)"/></clipPath></defs><g class="b" transform="translate(-52 774.453)"><g transform="translate(52 -774.453)"><path class="c" d="M806.352,4004.261c-10.44,5.288-11.686,18.03-11.545,29.481.076,6.232.619,12.436,1.013,18.649.357,5.627.332,11.308,2.956,16.341,4.378,8.4,13.949,10.616,21.978,11.357,12.326,1.137,24.709-.332,37.058.432,16.589,1.027,33,2.253,49.634,1.818s33.233-.611,49.876-.624,33.279-.08,49.914-.5c15.654-.394,32.041.322,47.128-4.955,6.839-2.391,12.138-6.044,15.184-12.178.547-6.772.868-13.564.914-20.366.059-8.849.231-18.4-1.608-27.058-1.01-4.758-2.932-8.858-6.615-11.454-.291-.2-.594-.382-.892-.573-9.4-4.532-20.739-2.626-30.65-2.328q-19.248.58-38.5.928-39.183.708-78.373.46-38.849-.246-77.687-1.434-9.793-.3-19.585-.659a37.611,37.611,0,0,0-8,.367A4.448,4.448,0,0,1,806.352,4004.261Z" transform="translate(-794.797 -4001.547)"/><text class="d" transform="translate(138 52.045)"><tspan x="-124.32" y="0">Browse More Games</tspan></text></g><path class="a" d="M806.8,4004.366c-10.842,5.489-12.136,18.724-11.989,30.616.078,6.47.643,12.913,1.052,19.364.371,5.844.345,11.746,3.071,16.97,4.546,8.722,14.485,11.023,22.823,11.794,12.8,1.18,25.66-.347,38.484.45,17.227,1.066,34.272,2.339,51.542,1.887s34.512-.633,51.794-.65,34.559-.081,51.834-.517c16.256-.409,33.273.336,48.94-5.146,7.1-2.482,12.6-6.275,15.768-12.647.569-7.031.9-14.085.949-21.147.062-9.19.24-19.1-1.669-28.1-1.049-4.943-3.045-9.2-6.87-11.9-.3-.213-.617-.395-.927-.595-9.76-4.705-21.537-2.726-31.829-2.418q-19.988.606-39.983.964-40.691.735-81.388.479-40.343-.256-80.676-1.492-10.169-.309-20.338-.685a39.4,39.4,0,0,0-8.312.382A4.624,4.624,0,0,1,806.8,4004.366Z" transform="translate(-1033.1 -4777.555)"/><text class="e" transform="translate(190 -727)"><tspan x="-35.4" y="0">Let’s Go</tspan></text></g></svg>